<?xml version="1.0" encoding="utf-8"?>
<!-- Generator: Adobe Illustrator 16.0.0, SVG Export Plug-In . SVG Version: 6.00 Build 0)  -->
<!DOCTYPE svg PUBLIC "-//W3C//DTD SVG 1.1//EN" "http://www.w3.org/Graphics/SVG/1.1/DTD/svg11.dtd">
<svg version="1.1" id="Layer_2" xmlns="http://www.w3.org/2000/svg" xmlns:xlink="http://www.w3.org/1999/xlink" x="0px" y="0px"
	 width="158px" height="158px" viewBox="0 0 158 158" enable-background="new 0 0 158 158" xml:space="preserve">
<circle fill="#FFFFFF" cx="79" cy="79" r="77.666"/>
<g>
	<circle fill="#263B97" cx="79" cy="79" r="70.166"/>
	<g>
		<path fill="#FFFFFF" d="M79,143.478c-35.552,0-64.476-28.924-64.476-64.478c0-35.552,28.924-64.477,64.476-64.477
			c35.553,0,64.477,28.924,64.477,64.477C143.476,114.554,114.552,143.478,79,143.478z M79,16.69
			c-34.358,0-62.31,27.952-62.31,62.31c0,34.357,27.952,62.311,62.31,62.311S141.31,113.357,141.31,79
			C141.31,44.642,113.357,16.69,79,16.69z"/>
	</g>
	<circle fill="#FFFFFF" cx="79" cy="79" r="39.316"/>
	<g>
		<path fill="#FFFFFF" d="M79,125.043c-25.387,0-46.042-20.654-46.042-46.043c0-25.388,20.654-46.042,46.042-46.042
			c25.389,0,46.043,20.654,46.043,46.042C125.043,104.389,104.388,125.043,79,125.043z M79,35.125
			c-24.192,0-43.875,19.683-43.875,43.875c0,24.194,19.683,43.876,43.875,43.876c24.194,0,43.877-19.682,43.877-43.876
			C122.876,54.808,103.193,35.125,79,35.125z"/>
	</g>
	<g>
		<path fill="#FFFFFF" d="M32.816,97.951l1.188,2.319l-4.592,7.078l0.026,0.053c1.113-0.663,1.914-1.122,2.404-1.371l4.049-2.074
			l0.835,1.63l-8.605,4.407l-1.179-2.302l4.53-7.037l-0.021-0.043c-1.089,0.633-1.864,1.067-2.327,1.304l-4.073,2.088l-0.841-1.645
			L32.816,97.951z"/>
		<path fill="#FFFFFF" d="M30.317,89.354l-2.048,1.262l0.893,3.409l2.404,0.096l0.56,2.137l-10.256-0.843l-0.635-2.424l8.524-5.772
			L30.317,89.354z M26.729,91.525c-1.853,1.153-2.901,1.806-3.146,1.955c-0.244,0.146-0.438,0.259-0.583,0.333
			c0.583-0.003,2.039,0.047,4.367,0.15L26.729,91.525z"/>
		<path fill="#FFFFFF" d="M29.372,81.609l0.144,2.045l-7.942,0.561l0.184,2.62l-1.702,0.12l-0.513-7.284l1.702-0.121l0.185,2.62
			L29.372,81.609z"/>
		<path fill="#FFFFFF" d="M29.361,76.736l-9.647-0.642l0.136-2.046l9.647,0.643L29.361,76.736z"/>
		<path fill="#FFFFFF" d="M27.025,61.876c1.557,0.371,2.662,1.042,3.314,2.013s0.807,2.177,0.464,3.619
			c-0.343,1.441-1.025,2.448-2.045,3.02c-1.021,0.573-2.313,0.673-3.879,0.3c-1.565-0.373-2.669-1.044-3.31-2.016
			c-0.641-0.971-0.79-2.179-0.445-3.624c0.344-1.446,1.024-2.452,2.038-3.02C24.176,61.602,25.464,61.504,27.025,61.876z
			 M25.39,68.74c1.051,0.25,1.89,0.239,2.517-0.033c0.627-0.272,1.035-0.805,1.224-1.599c0.379-1.591-0.489-2.639-2.604-3.142
			c-2.118-0.505-3.366,0.034-3.744,1.616c-0.188,0.794-0.064,1.456,0.374,1.986C23.595,68.1,24.339,68.49,25.39,68.74z"/>
		<path fill="#FFFFFF" d="M36.508,52.917l-1.168,2.329l-8.424,0.479l-0.027,0.054c1.192,0.504,2.035,0.88,2.527,1.127l4.067,2.041
			l-0.821,1.637l-8.642-4.335l1.16-2.312l8.356-0.506l0.021-0.042c-1.153-0.504-1.962-0.873-2.427-1.106l-4.09-2.052l0.827-1.649
			L36.508,52.917z"/>
		<path fill="#FFFFFF" d="M41.956,45.812l-2.23-0.904l-2.218,2.74l1.347,1.993l-1.39,1.717l-5.398-8.762l1.578-1.947l9.701,3.447
			L41.956,45.812z M38.082,44.206c-2.028-0.808-3.174-1.267-3.438-1.375c-0.264-0.109-0.469-0.2-0.614-0.271
			c0.347,0.468,1.17,1.669,2.467,3.605L38.082,44.206z"/>
		<path fill="#FFFFFF" d="M44.804,42.868l-6.285-7.348l1.559-1.333l5.184,6.062l2.98-2.549l1.101,1.287L44.804,42.868z"/>
		<path fill="#FFFFFF" d="M56.077,28.835l3.484-1.603l2.095,4.555c-0.48,0.444-0.953,0.817-1.417,1.121
			c-0.464,0.304-0.958,0.575-1.478,0.814c-1.326,0.61-2.518,0.686-3.575,0.229c-1.057-0.458-1.921-1.416-2.592-2.874
			c-0.652-1.418-0.755-2.71-0.309-3.876c0.446-1.167,1.388-2.081,2.826-2.742c0.901-0.415,1.854-0.634,2.856-0.658l0.067,1.774
			c-0.789-0.025-1.529,0.122-2.222,0.44c-0.805,0.371-1.326,0.937-1.562,1.701c-0.236,0.764-0.144,1.603,0.276,2.516
			c0.439,0.953,0.969,1.591,1.59,1.914c0.623,0.324,1.306,0.313,2.051-0.029c0.389-0.178,0.765-0.4,1.128-0.664l-0.843-1.833
			l-1.665,0.766L56.077,28.835z"/>
		<path fill="#FFFFFF" d="M70.065,29.962l-5.406,1.336l-2.321-9.386l5.405-1.337l0.404,1.631l-3.416,0.845l0.509,2.061l3.178-0.786
			l0.404,1.63l-3.178,0.786l0.598,2.42l3.416-0.845L70.065,29.962z"/>
		<path fill="#FFFFFF" d="M76.728,29.272l-2.531-7.521l-0.059,0.001c0.125,1.54,0.194,2.568,0.208,3.084l0.122,4.496l-1.831,0.049
			l-0.261-9.665l2.79-0.076l2.486,7.33l0.04-0.001l2.227-7.457l2.79-0.075l0.261,9.666l-1.911,0.051l-0.123-4.575
			c-0.005-0.216-0.008-0.465-0.01-0.748c-0.002-0.282,0.008-1.032,0.028-2.25l-0.059,0.001l-2.29,7.637L76.728,29.272z"/>
		<path fill="#FFFFFF" d="M92.089,28.04c-0.161,0.858-0.597,1.475-1.308,1.853c-0.711,0.377-1.616,0.462-2.716,0.256
			c-1.015-0.19-1.875-0.551-2.583-1.079l0.352-1.872c0.588,0.407,1.093,0.71,1.514,0.912c0.423,0.2,0.818,0.335,1.187,0.404
			c0.441,0.084,0.796,0.063,1.064-0.062c0.269-0.125,0.434-0.354,0.497-0.687c0.035-0.187,0.014-0.362-0.063-0.527
			c-0.077-0.165-0.203-0.333-0.379-0.506s-0.546-0.464-1.11-0.875c-0.529-0.383-0.916-0.727-1.158-1.033
			c-0.244-0.306-0.419-0.642-0.53-1.008c-0.111-0.367-0.124-0.773-0.04-1.219c0.158-0.84,0.567-1.448,1.228-1.821
			c0.661-0.374,1.494-0.466,2.499-0.276c0.494,0.093,0.954,0.24,1.38,0.441c0.426,0.202,0.864,0.455,1.314,0.76l-0.945,1.443
			c-0.467-0.303-0.859-0.527-1.175-0.672c-0.316-0.144-0.634-0.247-0.955-0.308c-0.381-0.072-0.69-0.038-0.927,0.102
			c-0.238,0.139-0.383,0.352-0.437,0.638c-0.034,0.178-0.021,0.34,0.036,0.488c0.057,0.148,0.164,0.3,0.321,0.458
			c0.157,0.158,0.54,0.459,1.151,0.907c0.809,0.592,1.337,1.132,1.586,1.621S92.206,27.42,92.089,28.04z"/>
		<path fill="#FFFFFF" d="M105.161,36.343l-1.824-0.922l1.882-3.724l-3.417-1.728l-1.882,3.725l-1.83-0.925l4.361-8.629l1.83,0.925
			l-1.709,3.382l3.417,1.728l1.709-3.383l1.824,0.922L105.161,36.343z"/>
		<path fill="#FFFFFF" d="M107.916,37.172c0.217-0.3,0.461-0.469,0.732-0.506c0.273-0.038,0.563,0.054,0.87,0.276
			c0.297,0.214,0.47,0.458,0.519,0.733c0.049,0.274-0.032,0.559-0.244,0.852c-0.203,0.283-0.447,0.446-0.728,0.49
			c-0.282,0.044-0.57-0.04-0.863-0.251c-0.3-0.216-0.476-0.464-0.525-0.742C107.627,37.747,107.707,37.463,107.916,37.172z"/>
		<path fill="#FFFFFF" d="M117.444,42.948c-0.598,0.637-1.297,0.922-2.1,0.859c-0.802-0.063-1.611-0.479-2.428-1.245
			c-0.751-0.705-1.285-1.472-1.598-2.298l1.304-1.388c0.276,0.658,0.539,1.186,0.787,1.582c0.248,0.396,0.508,0.723,0.781,0.979
			c0.328,0.308,0.639,0.48,0.932,0.52c0.293,0.039,0.556-0.065,0.788-0.313c0.129-0.138,0.207-0.297,0.23-0.478
			c0.024-0.18,0.008-0.39-0.048-0.63c-0.056-0.24-0.212-0.685-0.466-1.335c-0.241-0.607-0.381-1.105-0.422-1.494
			c-0.04-0.389-0.009-0.767,0.095-1.135s0.311-0.718,0.622-1.049c0.585-0.624,1.257-0.916,2.015-0.876
			c0.758,0.04,1.51,0.41,2.256,1.111c0.366,0.343,0.675,0.715,0.927,1.114c0.25,0.399,0.484,0.848,0.699,1.346l-1.572,0.71
			c-0.232-0.507-0.442-0.907-0.63-1.199c-0.188-0.292-0.402-0.549-0.64-0.772c-0.282-0.266-0.562-0.404-0.836-0.414
			c-0.274-0.011-0.512,0.091-0.711,0.303c-0.123,0.131-0.201,0.275-0.231,0.431c-0.031,0.155-0.023,0.341,0.025,0.559
			c0.047,0.216,0.208,0.678,0.483,1.383c0.363,0.933,0.519,1.673,0.465,2.219C118.117,41.985,117.875,42.488,117.444,42.948z"/>
		<path fill="#FFFFFF" d="M117.679,45.927c0.286-0.235,0.564-0.336,0.837-0.304c0.272,0.033,0.53,0.196,0.771,0.488
			c0.231,0.283,0.337,0.563,0.315,0.841c-0.023,0.278-0.173,0.532-0.453,0.762c-0.269,0.221-0.545,0.317-0.83,0.288
			c-0.284-0.029-0.54-0.183-0.77-0.462c-0.235-0.287-0.341-0.57-0.319-0.851S117.403,46.154,117.679,45.927z"/>
		<path fill="#FFFFFF" d="M127.459,58.108c-0.777,0.396-1.533,0.428-2.266,0.097c-0.733-0.332-1.354-0.997-1.862-1.995
			c-0.468-0.919-0.709-1.821-0.724-2.704l1.698-0.865c0.036,0.713,0.104,1.299,0.204,1.755c0.098,0.457,0.233,0.852,0.403,1.187
			c0.205,0.4,0.437,0.668,0.699,0.805s0.545,0.127,0.848-0.027c0.168-0.086,0.295-0.21,0.379-0.371
			c0.083-0.162,0.14-0.365,0.168-0.609c0.028-0.245,0.032-0.716,0.014-1.414c-0.021-0.652,0.016-1.168,0.109-1.547
			c0.094-0.379,0.252-0.725,0.475-1.036c0.222-0.311,0.537-0.57,0.94-0.776c0.763-0.388,1.493-0.435,2.192-0.141
			c0.7,0.295,1.282,0.897,1.745,1.809c0.229,0.448,0.393,0.902,0.494,1.363c0.101,0.461,0.168,0.962,0.202,1.504l-1.721,0.134
			c-0.045-0.556-0.107-1.003-0.186-1.342c-0.078-0.338-0.191-0.653-0.339-0.943c-0.176-0.346-0.392-0.57-0.647-0.672
			c-0.255-0.103-0.512-0.088-0.771,0.044c-0.161,0.082-0.283,0.19-0.364,0.326c-0.083,0.136-0.138,0.314-0.167,0.534
			c-0.029,0.22-0.034,0.709-0.014,1.465c0.024,1.001-0.08,1.75-0.315,2.246C128.419,57.431,128.022,57.822,127.459,58.108z"/>
		<path fill="#FFFFFF" d="M134.913,63.15c-0.225-0.738-0.675-1.225-1.354-1.461s-1.512-0.204-2.504,0.098
			c-2.063,0.627-2.858,1.715-2.387,3.263c0.197,0.649,0.599,1.387,1.206,2.211l-1.645,0.5c-0.548-0.663-0.964-1.462-1.249-2.399
			c-0.41-1.346-0.314-2.499,0.285-3.46c0.6-0.961,1.663-1.674,3.189-2.138c0.961-0.293,1.857-0.375,2.688-0.245
			c0.83,0.13,1.537,0.465,2.123,1.003c0.585,0.538,1.013,1.248,1.28,2.13c0.273,0.898,0.331,1.867,0.172,2.906l-1.787-0.147
			c0.059-0.396,0.097-0.788,0.112-1.174C135.059,63.85,135.016,63.487,134.913,63.15z"/>
		<path fill="#FFFFFF" d="M129.17,78.391l-0.187-2.034l4.155-0.383l-0.351-3.813l-4.156,0.382l-0.188-2.042l9.629-0.886l0.187,2.041
			l-3.773,0.347l0.351,3.813l3.773-0.347l0.187,2.035L129.17,78.391z"/>
		<path fill="#FFFFFF" d="M132.811,90.769c-1.586-0.206-2.755-0.759-3.505-1.656c-0.75-0.898-1.029-2.081-0.837-3.551
			c0.191-1.469,0.765-2.542,1.72-3.216c0.955-0.677,2.23-0.909,3.826-0.703c1.596,0.208,2.763,0.761,3.502,1.66
			c0.739,0.898,1.012,2.086,0.82,3.559c-0.192,1.474-0.763,2.545-1.713,3.214C135.674,90.746,134.403,90.977,132.811,90.769z
			 M133.723,83.772c-1.071-0.139-1.904-0.041-2.499,0.294c-0.596,0.337-0.945,0.91-1.051,1.718
			c-0.211,1.622,0.762,2.573,2.916,2.854c2.16,0.281,3.345-0.384,3.555-1.997c0.106-0.811-0.087-1.455-0.578-1.937
			C135.576,84.222,134.794,83.911,133.723,83.772z"/>
		<path fill="#FFFFFF" d="M128.795,102.564c-1.499-0.562-2.511-1.363-3.038-2.408c-0.527-1.044-0.531-2.263-0.011-3.647
			c0.521-1.388,1.321-2.302,2.405-2.745c1.083-0.44,2.378-0.379,3.885,0.184c1.507,0.565,2.519,1.369,3.034,2.412
			s0.513,2.261-0.008,3.65c-0.522,1.394-1.32,2.308-2.397,2.744C131.588,103.19,130.298,103.127,128.795,102.564z M131.27,95.957
			c-1.012-0.379-1.845-0.473-2.5-0.281c-0.656,0.194-1.127,0.671-1.414,1.435c-0.573,1.532,0.158,2.679,2.193,3.442
			c2.04,0.763,3.345,0.383,3.916-1.141c0.286-0.764,0.245-1.437-0.124-2.017C132.972,96.814,132.282,96.335,131.27,95.957z"/>
		<path fill="#FFFFFF" d="M122.906,103.158l8.209,5.106l-1.082,1.74l-6.773-4.213l-2.072,3.33l-1.438-0.894L122.906,103.158z"/>
	</g>
	<g>
		<g>
			<path fill="#FFFFFF" d="M48.729,130.501l-2.263-1.437l-0.1-5.289l-1.203,0.035l-2.003,3.158l-1.994-1.263l5.609-8.847
				l1.994,1.263l-2.567,4.048l1.445-0.543l4.454-1.392l2.212,1.402l-5.762,1.834L48.729,130.501z"/>
			<path fill="#FFFFFF" d="M62.775,130.464c-0.61,1.622-1.508,2.708-2.691,3.259c-1.183,0.549-2.573,0.522-4.169-0.078
				c-1.597-0.602-2.659-1.497-3.186-2.69c-0.527-1.194-0.483-2.608,0.131-4.238c0.613-1.632,1.511-2.718,2.693-3.254
				c1.181-0.539,2.572-0.507,4.173,0.098c1.602,0.602,2.663,1.497,3.184,2.683C63.433,127.43,63.389,128.836,62.775,130.464z
				 M55.171,127.602c-0.412,1.096-0.501,2.001-0.269,2.724c0.233,0.721,0.789,1.245,1.668,1.577
				c1.762,0.663,3.059-0.105,3.889-2.312c0.831-2.208,0.37-3.642-1.384-4.301c-0.878-0.333-1.646-0.305-2.301,0.085
				C56.118,125.763,55.584,126.506,55.171,127.602z"/>
			<path fill="#FFFFFF" d="M64.656,136.171l1.803-10.32l2.325,0.406l-1.488,8.513l4.448,0.777l-0.315,1.808L64.656,136.171z"/>
			<path fill="#FFFFFF" d="M83.693,137.707l-2.681-0.021l-2.883-4.434l-1.002,0.668l-0.028,3.737l-2.361-0.017l0.078-10.475
				l2.361,0.019l-0.036,4.792l0.938-1.226l3.042-3.538l2.619,0.019l-3.918,4.606L83.693,137.707z"/>
			<path fill="#FFFFFF" d="M93.262,136.197l-1.223-2.317l-3.999,0.697l-0.368,2.596l-2.505,0.437l2.064-11.036l2.843-0.496
				l5.692,9.684L93.262,136.197z M91.163,132.144c-1.124-2.1-1.756-3.285-1.9-3.561s-0.25-0.494-0.319-0.657
				c-0.061,0.631-0.273,2.201-0.638,4.716L91.163,132.144z"/>
			<path fill="#FFFFFF" d="M102.487,133.392l-2.22,0.8l-2.929-8.112l-2.844,1.026l-0.627-1.74l7.907-2.853l0.628,1.738l-2.844,1.026
				L102.487,133.392z"/>
			<path fill="#FFFFFF" d="M114.107,127.598l-1.946-1.755l-3.514,2.03l0.549,2.564l-2.202,1.271l-1.862-11.071l2.499-1.444
				l8.679,7.131L114.107,127.598z M110.74,124.513c-1.776-1.584-2.779-2.479-3.008-2.688c-0.23-0.21-0.406-0.38-0.527-0.506
				c0.161,0.61,0.502,2.158,1.023,4.646L110.74,124.513z"/>
		</g>
	</g>
	<circle fill="#FFFFFF" cx="38.348" cy="115.38" r="3.01"/>
	<circle fill="#FFFFFF" cx="117.733" cy="116.508" r="3.01"/>
	<g>
		<path fill="#263B97" d="M71.848,112.574l-10.439-5.078c0,0,2.822-4.232-2.258-8.466c0,0-16.648-14.675-11.287-32.451
			c0,0,3.386-1.975,4.515,6.772c0,0,5.644,21.446,15.802,22.574c0,0,2.256-2.54-1.693-6.49c0,0-8.465-11.004-3.668-11.004
			c0,0,8.184,4.232,12.416,12.417c0,0,2.821,5.361-1.13,14.108C74.105,104.955,72.13,108.341,71.848,112.574z"/>
		<path fill="#263B97" d="M86.153,112.574l10.44-5.078c0,0-2.823-4.232,2.257-8.466c0,0,16.646-14.675,11.285-32.451
			c0,0-3.385-1.975-4.514,6.772c0,0-5.642,21.446-15.8,22.574c0,0-2.257-2.54,1.693-6.49c0,0,8.465-11.004,3.668-11.004
			c0,0-8.183,4.232-12.415,12.417c0,0-2.822,5.361,1.127,14.108C83.895,104.955,85.872,108.341,86.153,112.574z"/>
		<g>
			<g>
				<path fill="#263B97" d="M90.319,56.525c0,0,3.119,9.361-0.78,16.77c0,0,7.995-1.56,7.412-7.995c0,0-0.781-0.584,1.558-1.949
					c0,0,1.56,0.39,1.755-4.875c0,0,2.341-3.317,1.951-5.071C102.215,53.405,94.999,53.016,90.319,56.525z"/>
				<path fill="#263B97" d="M89.343,50.286c0,0,1.756-0.781,1.366-2.34c0,0-7.411-3.51-8.582,2.145c0,0-0.194,6.63-1.95,9.944
					c0,0-4.679,1.952-5.85,7.801c0,0-3.119,0.39-1.56-2.145c0,0,2.339-1.171,2.146-4.485c0,0,4.29-1.171,2.923-3.706
					c0,0-8.189-7.605-17.549-3.51c0,0-2.34,2.535,1.56,4.875c0,0,0.779,0.584-0.585,1.561c0,0-5.459,3.705,1.95,3.705
					c0,0,0.78,1.169-0.389,2.925c0,0-4.096,2.73,10.14,7.8c0,0,0.976,4.29-1.561,4.875c0,0,1.366,3.705,7.412,2.144
					c0,0,15.015-7.02,10.14-24.375C88.955,57.5,87.004,51.65,89.343,50.286z M85.249,52.626c-0.754,0-1.364-0.611-1.364-1.365
					c0-0.754,0.61-1.366,1.364-1.366s1.366,0.612,1.366,1.366C86.615,52.015,86.003,52.626,85.249,52.626z"/>
			</g>
		</g>
	</g>
</g>
</svg>
